<?xml version="1.0" encoding="utf-8"?>
<!-- Generator: Adobe Illustrator 26.4.1, SVG Export Plug-In . SVG Version: 6.00 Build 0)  -->
<svg version="1.1" id="Capa_1" xmlns="http://www.w3.org/2000/svg" xmlns:xlink="http://www.w3.org/1999/xlink" x="0px" y="0px"
	 viewBox="0 0 595.9 189.4" style="enable-background:new 0 0 595.9 189.4;" xml:space="preserve">
<path d="M586.8,91.4c-4.7,14.5-13.8,26.4-23.5,37.8c-14.2,16.5-32.9,16.1-47.2-0.6c-0.6-0.7-1.3-1.4-2.2-2.4
	c-5.4,13.1-10.4,26-17,38.1c-2.1,3.9-4.4,7.9-6.8,11.6c-5.3,8.1-13.6,12.2-20,10.1c-8.6-2.8-14.2-11.5-13.3-21.7
	c0.8-8.9,3.5-17.6,5.5-26.3c0.2-1,0.4-1.9,0.6-2.9c-0.5-0.1-0.9-0.3-1-0.1c-7.4,6.1-13.2,7.1-20,3.1c-7.5-4.4-14-13.6-12.3-21.6
	c4.6-21.6,12.4-42,21.6-62c1.2-2.5,3-3.4,5.7-2.3c2,0.8,4.1,1.4,6,2.3c6.1,3,7.6,6.6,5.1,13c-4.4,11.3-9.1,22.5-13.3,33.9
	c-2.5,6.7-4.2,13.6-6.3,20.5c-0.6,1.9-1.4,4.3,0.5,5.5c1.8,1.2,3.3-0.9,4.5-2.1c5.9-6,11.9-12,17.7-18.1c0.7-0.8,1-2.1,1.3-3.2
	c5.7-16.7,11.6-33.2,18.2-49.6c2.4-5.9,1.5-7.2-5-6.7c-8.6,0.6-17.2,1.8-25.8,2.3c-3,0.2-8.3,1.8-8.7-1.7c-0.4-3,5.1-1.8,7.9-2.6
	c2-0.6,4.2-0.7,7.4-1.2c-7.6-3.2-7.7-8.5-5.7-14.4c1.2-3.6,2.6-7.2,3.8-10.8c1.3-3.9,3.9-5.1,7.8-4c1.3,0.4,2.6,0.6,3.8,1.1
	c9,3.5,10.6,8.4,5.7,16.6c-1.7,2.9-3.7,5.5-6.2,7.7c-0.5,0.5-1.7,0.7-1.3,1.7c0.3,0.8,1.1,1.3,2.1,0.9c5-1.6,10.1-1.5,15.2-2.1
	c3.3-0.4,5.4-2.5,6.5-5.5c1.7-4.5,3.5-9,5.1-13.5c1.1-3,2.9-4.2,6.1-3.2c3.8,1.2,7.8,2,10.5,5.3c1.7,2.1,3.2,4.6,2.5,7.3
	c-1.6,5.8,1.6,6.4,5.8,5.9c4.9-0.5,9.9-1.1,14.9-0.8c1.5,0.1,3,0.2,4.4,0.5c2.5,0.4,4,2.1,3.9,4.5c-0.1,2.5-2.1,3.7-4.4,3.9
	c-7.5,0.6-14.9,1.3-22.4,1.4c-5.5,0.1-8.2,2.8-10.4,7.5c-15.6,35-26.7,71.5-35.8,108.7c-0.6,2.3-2.2,5.7,0.2,6.9
	c2.6,1.3,4.1-2.3,5.3-4.2c9.4-14.3,17.8-29.2,26.3-44.1c0.7-1.3,0.8-2.4,0.6-3.8c-3.6-18.6,3.1-34.3,14-48.7
	c4.6-6,10.6-10.6,16.7-14.9c6.4-4.5,25.7,2.4,28,9.9c0.8,2.5,0.5,4.9-0.1,7.4c-3.5,13.5-9.3,25.9-16.2,37.9
	c-0.3,0.6-0.8,1.1-1.2,1.6c-6.6,8.9-11.3,9.4-19.8,2.2c-1.3-1.1-2.4-3.2-4.5-2.4c-2.2,0.8-2.4,3.1-2.6,5c-0.2,2-0.3,4-0.2,6
	c0.5,8.2,5.1,11.5,13.1,9.5c5.7-1.4,10.3-4.4,14.6-8.3c10.8-9.8,19.2-21.7,29.1-32.3c1.4-1.5,2.4-3.8,5.2-2.6
	C586.8,89.4,586.8,90.4,586.8,91.4z M529.7,99.2c0.1,3.1,0.6,6,2.9,7c2.6,1.2,4.1-1.5,5.5-3.2c1.1-1.4,2.1-3,2.8-4.7
	c3.6-8.4,7.2-16.7,10.7-25.1c0.5-1.3,1.7-2.9,0.1-4.1c-1.6-1.1-2.6,0.7-3.6,1.6c-7.7,7.3-13.5,15.9-17.7,25.6
	C530,97.4,529.8,98.6,529.7,99.2z"/>
<path d="M3,80.4c3.5-12.5,13.5-18.1,24.1-23.1c27.9-13.1,57.4-20.8,87.5-26.8c15.2-3.1,30.5-5.5,46-6c6.8-0.2,12,8.4,8.9,14.5
	c-0.9,1.9-2.7,2.3-4.5,2.7c-9.4,2.2-19.2,1.9-28.7,3.7c-9.3,1.7-18.6,3.4-28,4.9c-3.3,0.5-5.6,2.1-7,5
	c-13.5,28.7-27.2,57.4-33.2,88.9c-1,5.1-0.9,10.2,0.6,15.3c1.4,4.7-0.2,6.2-5,5.5c-8.5-1.2-15.3-8.7-15.6-17.2
	c-0.6-13.8,4.1-26.5,8.5-39.2c5.6-16,11.3-32,18.5-47.3c0.3-0.7,0.9-1.4,0.3-2.6c-0.5,0-1.1-0.1-1.7,0c-16.4,4.9-32.8,10-47.5,19.1
	c-6.2,3.8-11.9,8-12.5,16.3c-0.2,2.7-2.1,2.8-4.3,1.2C5.7,92.5,5,88.1,3,84.4C3,83.1,3,81.7,3,80.4z"/>
<path d="M371.7,100c4.9-7.7,9.9-15.3,14.8-23c3.9-6.1,8.8-11.3,14.5-15.7c9.5-7.2,24.9-3.5,30.1,7.4c3.1,6.5,3.7,13.4,2.6,20.5
	c-1.7,11.8-5.1,23-11.4,33.3c-4.5,7.3-10.8,13-18.3,16.6c-9.1,4.3-18.1,0.2-26-4.4c-3.9-2.3-6.3-2.5-9.4,0.7c-2.9,3-6.5,2.9-10.1,1
	c-7.6-4-11.3-10.5-11.7-19.7c-5.1,6.2-9.1,12.5-14.6,17.6c-8.6,7.9-18.8,9.5-29.5,4.5c-3-1.4-5.9-3.2-8.4-5.3
	c-2.4-2-4.7-4.1-7.2-6.3c-3.3,7.7-6.8,15.8-10.3,23.9c-3.2,7.5-7,14.7-11.2,21.7c-1,1.7-2.1,3.4-3.3,5c-5,6.8-12.9,10.2-18.9,8.3
	c-7.7-2.5-13.8-10.7-13.3-19.2c0.6-10.8,3.9-21.2,6.5-31.7c4.9-19.9,12.1-39,18.9-58.3c0.5-1.5,1-3.1,1.8-5.6
	c-10.4,6.9-19.9,13.2-29.4,19.6c-3.8,2.5-3.1,5.7-1.3,9.2c3.3,6.3,6.1,12.8,4.5,20c-4.1,19-13.2,23.8-29.2,20.9
	c-4.9-0.9-9.7-2.3-13.8-5.4c-1.9-1.4-2.9-1-4.5,0.6c-4.3,4.2-9.8,4.9-15.1,2.1c-7.4-3.9-12-9.8-13.4-18.2c-0.2-1.1-0.2-2.4-0.5-3.4
	c-0.5-1.3,0.2-3.5-1.6-3.9c-2.1-0.5-2.6,1.7-3.5,3c-3.9,5.4-7.5,11-11.5,16.3c-6.2,8.3-18.2,9.2-25.9,2.2c-9-8.2-11.4-22.5-5.2-34.9
	c7.4-15,16.8-28.7,29.4-40c5.5-4.9,11.7-3.8,18-2.4c5.3,1.1,10,3.7,14.1,7.1c2.3,1.9,4.2,2.1,5.3-1.1c1.6-4.8,4.1-7.9,9.9-6
	c5.5,1.9,9.3,7,8.6,12.5c-0.3,2.3-1.1,4.5-1.9,6.7c-4.5,11.6-9,23.2-13.6,34.8c-1.6,4.2-3,8.5-3.6,12.9c-0.2,1.4-0.1,3.3,2,3.4
	c1.9,0.2,2.1-1.1,2.5-2.8c0.9-4.5,4.4-7.3,7.8-10c6.8-5.4,13.6-10.8,20.7-15.7c4.3-3,4.9-6,2.4-10.5c-2.8-5.2-6-10.3-6.6-16.5
	c-1.1-11.5,7.5-24.9,18.7-28.3c1.6-0.5,3.3-1.1,4.9-0.5c10.8,4.2,21.3-0.8,31.9-0.6c11.4,0.2,15.3-6,18-15.3c1-3.3,0.5-9.3,7.1-8
	c9.2,1.8,14.2,6.4,13.3,13.2c-0.6,4.6,1.2,5.8,5.2,5.4c5.3-0.5,10.5-1.2,15.9-0.8c1.5,0.1,3,0.2,4.4,0.6c2.4,0.6,3.9,2.2,3.7,4.6
	c-0.2,2.3-2,3.4-4.2,3.6c-5.1,0.4-10.3,0.8-15.4,1c-14.4,0.5-14.3,0.5-20,13.7c-14.5,33.5-25.1,68.3-33.5,103.7
	c-0.5,2.1-2.1,5.2,0.3,6.3c2.4,1.1,3.8-2.1,5.1-3.9c9.6-14.4,18-29.5,26.6-44.6c0.7-1.3,0.7-2.5,0.4-3.8
	c-3.5-22.2,5.1-39.9,20.4-55.1c0.6-0.6,1.4-1,1.9-1.6c8.2-10.1,18-9.3,28.6-4.4c7,3.2,9.8,7.6,7.8,15.1
	c-3.5,13.6-9.4,26.3-16.5,38.3c-0.9,1.6-2.2,2.9-3.5,4.2c-4.6,4.9-6.7,5.2-12.7,2.1c-1.3-0.7-2.5-1.6-3.8-2.4c-1.7-1.1-2.7-4-5.2-3
	c-2.6,1-2.2,3.9-2.6,6.1c-0.5,2.6-0.3,5.3,0.4,7.9c1.6,5.9,5.3,8.2,11.2,7c5.8-1.2,10.8-4.1,15.3-8c9.2-8.1,16.5-17.9,24.5-27
	c0.8-0.9,1.3-2.3,1.7-3.6c6.1-20.1,14.2-39.4,23.4-58.2c3.4-7,6.5-14.2,9.2-21.5c1.8-4.8,3.6-5.5,8.4-3.7c8.2,3.2,10.5,9,7.5,17.4
	c-8,21.5-19.3,41.6-26.3,63.5C372.5,93.8,371.1,96.6,371.7,100z M417.3,73.6c0.2-2.5-0.8-5.3-2.2-5.7c-2-0.7-3.5,0.6-4.8,1.8
	c-15.8,13.8-24.6,32.3-33.9,50.5c-0.9,1.7-0.2,3.2,0.6,4.7c3.2,5.4,9.2,6.7,14.4,2.7C409.2,113.9,415.2,94.7,417.3,73.6z
	 M117.9,123.6c0.2,2.8-0.2,6.3,2.8,7.5c2.9,1.2,4.6-1.9,6.4-3.8c0.6-0.6,1.1-1.2,1.6-1.9c11.7-16.9,23.3-33.9,35-50.8
	c1.3-1.9,1.5-3.6-0.1-5.4c-1.8-1.9-3.9-3.4-6.6-2.1c-2.2,1.1-4.4,2.4-6.3,4c-12.7,10.2-21.5,23.4-28.6,37.8
	C119.9,113.5,118.4,118.4,117.9,123.6z M257,47.5c-4.5,2.3-12.6-2.4-16.4,5.7c-0.1,0.3-0.9,0.3-1.4,0.4c-7.3,1.9-12.6,6.6-17.2,12.2
	c-3.9,4.6-5.8,10-4.4,16.2c1.1,5.2,2.6,6,7.1,3.1c8.4-5.3,16.9-10.7,25.9-14.8c6.8-3.1,11-7.7,13.2-14.9
	C266,48.2,265.8,47.3,257,47.5z M216.2,110.1c-0.1-1,0-2.5-0.3-4c-0.4-2.2-1.8-3.4-3.9-1.9c-8.2,6.1-16.8,11.8-24.2,19
	c-2.6,2.5-2,4.9,1.5,5.8C204.6,133.2,214.9,126.6,216.2,110.1z M302.8,99.7c0.6,2.7,0.8,5.6,3.3,6.5c2.6,1,4.1-1.7,5.5-3.4
	c1.2-1.5,2.3-3.3,3-5.1c3.5-8,6.9-16.1,10.2-24.2c0.6-1.4,2.1-3.2,0-4.4c-1.5-0.9-2.7,0.8-3.7,1.8c-7.6,7.4-13.4,15.9-17.5,25.7
	C303.3,97.7,303.1,98.8,302.8,99.7z"/>
</svg>
